<svg width="288" height="80" viewBox="0 0 288 80" xmlns="http://www.w3.org/2000/svg">
    <defs>
        <filter x="-6.6%" y="-29.2%" width="113.2%" height="156.7%" filterUnits="objectBoundingBox" id="7cqgmb20ya">
            <feOffset dx="1" dy="2" in="SourceAlpha" result="shadowOffsetOuter1"/>
            <feGaussianBlur stdDeviation=".5" in="shadowOffsetOuter1" result="shadowBlurOuter1"/>
            <feColorMatrix values="0 0 0 0 0 0 0 0 0 0 0 0 0 0 0 0 0 0 0.5 0" in="shadowBlurOuter1" result="shadowMatrixOuter1"/>
            <feMerge>
                <feMergeNode in="shadowMatrixOuter1"/>
                <feMergeNode in="SourceGraphic"/>
            </feMerge>
        </filter>
    </defs>
    <g filter="url(#7cqgmb20ya)" transform="translate(10.5 9)" fill-rule="nonzero" fill="none">
        <path d="M16.495 48.98c9.07.157 16.8-3.068 18.9-11.04 1.617-6.021-1.01-9.54-4.91-10.728l.899-.152c3.55-1.227 6.303-4.931 7.143-8.109 2.276-8.474-4.283-11.332-12.906-11.483l-14.166-.247L.37 48.698l16.125.281zm4.358-25.073-3.751-.065 2.34-8.865 4.534.08c4.2.073 5.586.881 4.927 3.334-.899 3.345-3.794 5.59-8.05 5.516zm-3.832 17.408-4.591-.08L15.125 31.2l5.375.094c4.872.085 6.648 1.012 5.87 3.911-1.08 4.07-4.534 6.194-9.349 6.11zm71.201-10.463c2.874-4.206 6.79-10.355 9.922-16.517l-5.138-4.067-1.631.42-15.294.181c1.27-2.162 2.373-4.383 3.421-6.661l-8.356-2.61c-4.08 9.17-10.176 18.249-16.03 23.131 2.105 1.381 5.594 3.627 7.132 5.334 2.792-2.696 5.885-6.619 8.932-11.158l15.638-.623c-1.68 3.163-3.64 6.321-4.737 8.262 1.77 1.263 4.653 2.938 6.141 4.308zM55.88 19.534l6.434-5.993c-2.086-2.444-6.62-5.828-9.888-7.901l-5.808 5.443c3.376 2.355 7.625 5.958 9.262 8.45zm-2.418 35.86c8.969-3.653 14.888-9.038 19.362-15.065 1.236 6.182 4.45 11.391 10.436 14.968 1.323-1.993 4.97-5.514 6.786-6.938-8.502-3.845-11.066-10.947-11.075-20.077a36.64 36.64 0 0 0 1.364-4.345l1.137-4.18-8.79-.154-.838 3.066c-1.857 6.913-7.111 19.143-23.526 25.801 1.93 1.714 4.12 4.665 5.144 6.923zm-10.163-4.939c4.803-5.685 9.724-11.648 14.366-17.672l-5.323-6.31c-5.156 6.631-11.378 13.356-15.54 17.54l6.497 6.442zM148.15 14.928l2.096-7.805-40.09-.7-2.096 7.805 40.09.7zM95.806 55.236c15.04-4.89 19.566-13.94 23.63-25.351l7.399-.32-4.072 15.108c-1.98 7.47-.632 10.519 6.479 10.643l6.047.105c6.159.108 8.5-2.484 11.645-12.566-1.941-1.098-5.11-2.442-6.366-4.312-1.98 7.526-3.13 9.299-4.81 9.27l-3.864-.068c-1.623-.028-1.514.141-.915-2.088l4.31-15.944 14.278.25 2.098-7.861-50.672-.884-2.098 7.86 11.934-.24c-2.893 8.52-6.436 15.738-18.767 19.5 1.761 1.767 3.111 4.647 3.744 6.898zM196.7 57.221c.712-2.284 4.321-6.925 5.867-8.859-14.74-12.243-9.823-30.864-24.206-44.333l-6.33 6.443c2.985 2.292 4.953 5.07 6.584 7.9-7.368 14.601-17.298 25.182-29.99 30.337 1.986 1.715 4.895 5.126 6.149 7.108 10.731-5.133 19.618-13.715 27.561-25.955 2.856 9.684 5.24 20.647 14.365 27.36zm18.322-.408 1.197-4.404 28.051.49-1.197 4.404 8.96.156 12.521-46.773-45.52-.794-12.523 46.772 8.51.149zm31.467-12.277-28.052-.49 6.89-25.755 28.052.49-6.89 25.755z" stroke="#FF4178" stroke-width="21" fill="#000" stroke-linejoin="round"/>
        <path d="M16.495 48.98c9.07.157 16.8-3.068 18.9-11.04 1.617-6.021-1.01-9.54-4.91-10.728l.899-.152c3.55-1.227 6.303-4.931 7.143-8.109 2.276-8.474-4.283-11.332-12.906-11.483l-14.166-.247L.37 48.698l16.125.281zm4.358-25.073-3.751-.065 2.34-8.865 4.534.08c4.2.073 5.586.881 4.927 3.334-.899 3.345-3.794 5.59-8.05 5.516zm-3.832 17.408-4.591-.08L15.125 31.2l5.375.094c4.872.085 6.648 1.012 5.87 3.911-1.08 4.07-4.534 6.194-9.349 6.11zm71.201-10.463c2.874-4.206 6.79-10.355 9.922-16.517l-5.138-4.067-1.631.42-15.294.181c1.27-2.162 2.373-4.383 3.421-6.661l-8.356-2.61c-4.08 9.17-10.176 18.249-16.03 23.131 2.105 1.381 5.594 3.627 7.132 5.334 2.792-2.696 5.885-6.619 8.932-11.158l15.638-.623c-1.68 3.163-3.64 6.321-4.737 8.262 1.77 1.263 4.653 2.938 6.141 4.308zM55.88 19.534l6.434-5.993c-2.086-2.444-6.62-5.828-9.888-7.901l-5.808 5.443c3.376 2.355 7.625 5.958 9.262 8.45zm-2.418 35.86c8.969-3.653 14.888-9.038 19.362-15.065 1.236 6.182 4.45 11.391 10.436 14.968 1.323-1.993 4.97-5.514 6.786-6.938-8.502-3.845-11.066-10.947-11.075-20.077a36.64 36.64 0 0 0 1.364-4.345l1.137-4.18-8.79-.154-.838 3.066c-1.857 6.913-7.111 19.143-23.526 25.801 1.93 1.714 4.12 4.665 5.144 6.923zm-10.163-4.939c4.803-5.685 9.724-11.648 14.366-17.672l-5.323-6.31c-5.156 6.631-11.378 13.356-15.54 17.54l6.497 6.442zM148.15 14.928l2.096-7.805-40.09-.7-2.096 7.805 40.09.7zM95.806 55.236c15.04-4.89 19.566-13.94 23.63-25.351l7.399-.32-4.072 15.108c-1.98 7.47-.632 10.519 6.479 10.643l6.047.105c6.159.108 8.5-2.484 11.645-12.566-1.941-1.098-5.11-2.442-6.366-4.312-1.98 7.526-3.13 9.299-4.81 9.27l-3.864-.068c-1.623-.028-1.514.141-.915-2.088l4.31-15.944 14.278.25 2.098-7.861-50.672-.884-2.098 7.86 11.934-.24c-2.893 8.52-6.436 15.738-18.767 19.5 1.761 1.767 3.111 4.647 3.744 6.898zM196.7 57.221c.712-2.284 4.321-6.925 5.867-8.859-14.74-12.243-9.823-30.864-24.206-44.333l-6.33 6.443c2.985 2.292 4.953 5.07 6.584 7.9-7.368 14.601-17.298 25.182-29.99 30.337 1.986 1.715 4.895 5.126 6.149 7.108 10.731-5.133 19.618-13.715 27.561-25.955 2.856 9.684 5.24 20.647 14.365 27.36zm18.322-.408 1.197-4.404 28.051.49-1.197 4.404 8.96.156 12.521-46.773-45.52-.794-12.523 46.772 8.51.149zm31.467-12.277-28.052-.49 6.89-25.755 28.052.49-6.89 25.755z" stroke="#FFF" stroke-width="12" fill="#000" stroke-linejoin="round"/>
        <path d="M196.699 57.221c.712-2.284 4.321-6.925 5.867-8.859-14.74-12.243-9.823-30.864-24.206-44.333l-6.33 6.443c2.985 2.292 4.953 5.07 6.584 7.9-7.368 14.601-17.298 25.182-29.99 30.337 1.986 1.715 4.895 5.126 6.149 7.108 10.731-5.133 19.618-13.715 27.561-25.955 2.856 9.684 5.24 20.647 14.365 27.36zm18.322-.408 1.197-4.404 28.051.49-1.197 4.404 8.96.156 12.521-46.773-45.52-.794-12.523 46.772 8.51.149zm31.467-12.277-28.052-.49 6.89-25.755 28.052.49-6.89 25.755z" fill="#000"/>
        <path d="M16.495 48.98c9.07.157 16.8-3.068 18.9-11.04 1.617-6.021-1.01-9.54-4.91-10.728l.899-.152c3.55-1.227 6.303-4.931 7.143-8.109 2.276-8.474-4.283-11.332-12.906-11.483l-14.166-.247L.37 48.698l16.125.281zm4.358-25.073-3.751-.065 2.34-8.865 4.534.08c4.2.073 5.586.881 4.927 3.334-.899 3.345-3.794 5.59-8.05 5.516zm-3.832 17.408-4.591-.08L15.125 31.2l5.375.094c4.872.085 6.648 1.012 5.87 3.911-1.08 4.07-4.534 6.194-9.349 6.11zm71.201-10.463c2.874-4.206 6.79-10.355 9.922-16.517l-5.138-4.067-1.631.42-15.294.181c1.27-2.162 2.373-4.383 3.421-6.661l-8.356-2.61c-4.08 9.17-10.176 18.249-16.03 23.131 2.105 1.381 5.594 3.627 7.132 5.334 2.792-2.696 5.885-6.619 8.932-11.158l15.638-.623c-1.68 3.163-3.64 6.321-4.737 8.262 1.77 1.263 4.653 2.938 6.141 4.308zM55.88 19.534l6.434-5.993c-2.086-2.444-6.62-5.828-9.888-7.901l-5.808 5.443c3.376 2.355 7.625 5.958 9.262 8.45zm-2.418 35.86c8.969-3.653 14.888-9.038 19.362-15.065 1.236 6.182 4.45 11.391 10.436 14.968 1.323-1.993 4.97-5.514 6.786-6.938-8.502-3.845-11.066-10.947-11.075-20.077a36.64 36.64 0 0 0 1.364-4.345l1.137-4.18-8.79-.154-.838 3.066c-1.857 6.913-7.111 19.143-23.526 25.801 1.93 1.714 4.12 4.665 5.144 6.923zm-10.163-4.939c4.803-5.685 9.724-11.648 14.366-17.672l-5.323-6.31c-5.156 6.631-11.378 13.356-15.54 17.54l6.497 6.442zM148.15 14.928l2.096-7.805-40.09-.7-2.096 7.805 40.09.7zM95.806 55.236c15.04-4.89 19.566-13.94 23.63-25.351l7.399-.32-4.072 15.108c-1.98 7.47-.632 10.519 6.479 10.643l6.047.105c6.159.108 8.5-2.484 11.645-12.566-1.941-1.098-5.11-2.442-6.366-4.312-1.98 7.526-3.13 9.299-4.81 9.27l-3.864-.068c-1.623-.028-1.514.141-.915-2.088l4.31-15.944 14.278.25 2.098-7.861-50.672-.884-2.098 7.86 11.934-.24c-2.893 8.52-6.436 15.738-18.767 19.5 1.761 1.767 3.111 4.647 3.744 6.898z" fill="#FF4178"/>
    </g>
</svg>
