<svg width="90" height="90" viewBox="0 0 90 90" xmlns="http://www.w3.org/2000/svg" xmlns:xlink="http://www.w3.org/1999/xlink">
    <defs>
        <path id="u7nmu2kg8a" d="M0 .062h73.856V59.77H0z"/>
    </defs>
    <g fill="none" fill-rule="evenodd">
        <rect stroke="#FA719A" stroke-width="2" fill="#F24C7C" x="1" y="1" width="88" height="88" rx="44"/>
        <rect fill="#FFF" x="8" y="8" width="74" height="74" rx="37"/>
        <g transform="translate(8 14.294)">
            <mask id="28gpurlsdb" fill="#fff">
                <use xlink:href="#u7nmu2kg8a"/>
            </mask>
            <path d="M72.73 27.366a3.347 3.347 0 0 0-.618-1.276 3.113 3.113 0 0 0-2.462-1.193c-.087 0-.181-1.988-.33-2.774-.383-2.024-3.04-2.472-3.04-2.476l-.158-5.812a2.702 2.702 0 0 0-.293-1.191 2.605 2.605 0 0 0-2.49-1.393l-5.979.423c-1.021.072-1.826-.804-1.725-1.822.174-1.758-.243-3.6-1.24-5.268C52.702 1.753 49.718.062 46.412.062c-.199 0-.399.006-.602.019-4.674.284-7.656 5.31-9.21 8.94-2.028-3.313-5.265-7.118-9.435-7.118-.136 0-.271.004-.408.013-3.44.21-6.377 2.174-7.856 5.255-.853 1.779-1.09 3.715-.73 5.492.198.982-.489 1.92-1.488 1.997l-6.708.518a2.608 2.608 0 0 0-2.308 1.895 2.608 2.608 0 0 0-.077.975l.314 3.214a1.325 1.325 0 0 1-1.32 1.453H6.57c-1.656 0-3.047 1.095-3.462 2.725-.073.284-1.032 1.42-1.365 1.844-.24.305-.482.726-.618 1.276-.887.785-1.217 1.85-1.105 2.802.21 1.777 1.86 3.066 3.927 3.067.558 0 1.473.472 1.497.848.203 3.132 2.788 4.092 4.466 4.384.863.15 1.522.851 1.617 1.723.146 1.326.32 2.997.32 2.997l.155 1.728 1.02 11.295a2.6 2.6 0 0 0 2.589 2.365l41.978-.559a2.599 2.599 0 0 0 2.539-2.238l1.422-10.157.241-1.732.754-5.375c.14-.99.998-1.696 1.998-1.694h.017c2.814 0 4.963-1.707 4.999-3.971.004-.275.2-.808.348-.808 2.066 0 3.718-1.29 3.927-3.066.112-.953-.218-2.017-1.105-2.803" fill="#FFF" mask="url(#28gpurlsdb)"/>
        </g>
        <path fill="#8F6CFF" d="m68.375 50.769-1.156 8.247-.242 1.735-1.422 10.155-3.013.04h-.006l-1.237.017-8.51.112-1.238.017-3.983.052-6.983.093-11.226.15-2.722.037-3.025.04-1.02-11.295-.155-1.726-.699-7.674z"/>
        <path fill="#FFD000" d="m48.233 50.767-1.631 20.39-5.59.075.703-20.465z"/>
        <path fill="#8F6CFF" d="m71.522 28.138.16 5.873-21.473 1.498-9.285.648-22.2 1.549-.549-5.643 21.997-1.698 10.14-.729z"/>
        <path fill="#FFD000" d="m49.205 29.703-.014 5.868-7.504.54-.676-5.797z"/>
        <path d="M42.101 30.312s-.9-.798.736-1.92c1.637-1.124 3.357-.888 4.248-.26.89.628.443 1.679.443 1.679l-5.427.501z" fill="#FFD000"/>
        <path d="m44.33 28.476-.425.233c-.156-.4-.396-.98-.625-1.376 0 0-3.663-6.94-8.25-6.66-4.589.28-5.734 6.66-2.562 8.342 2.65 1.406 8.502.592 10.352.288l-.78.427s-10.086 2.045-12.512-1.389c-2.427-3.433.12-9.216 5.387-9.537 5.267-.321 9.457 9.656 9.415 9.672M45.797 27.713l.45.179c.107-.416.275-1.022.454-1.442 0 0 2.793-7.333 7.38-7.612 4.588-.28 6.5 5.914 3.556 7.97-2.46 1.716-8.794 2.229-10.667 2.152l.02.336s11.493.188 13.484-3.515c1.991-3.702-1.239-9.133-6.506-8.812-5.268.32-8.214 10.733-8.171 10.744" fill="#FFD000"/>
        <path d="m28.964 48.837-.082-1.865-5.77.254.082 1.865 5.77-.254zm-5.88-2.258 5.77-.255-.078-1.765-5.77.254.077 1.766zm5.59-4.308-5.77.254.073 1.641 5.77-.254-.072-1.641zm2.227-1.793-3.905.172-.986 1.09 3.519-.155c.597-.026 1.024.329 1.053.988l.255 5.782c.031.71-.365 1.063-.962 1.09l-7.56.333c-.597.026-.998-.293-1.029-1.002l-.255-5.782c-.029-.66.34-1.05.937-1.076l2.276-.1.6-1.073-4.29.188c-.522.024-.55-.623-.028-.646l2.238-.099c-.436-.28-.91-.582-1.233-.842-.283-.212-.192-.665.221-.633.687.032 1.917.252 2.461.427.649.296.468.715.044.983l2.698-.12c-.055-.109-.012-.273.12-.379a44.49 44.49 0 0 1 1.521-1.1c.7-.53 2.262.423 1.606.801-.465.195-1.388.447-2.215.633l2.885-.127c.46-.02.489.626.029.647zM42.381 48.158l-.05-1.12a.332.332 0 0 0-.108.068l-.145.118a.558.558 0 0 0-.143.418c.056.434.323.546.446.516zm-2.492-8.2-.125.553c-.009.088-.042.176-.063.264.484-.046 1.033.267.957.806l-.169.68c.143-.13.395-.08.481.178.267.673 1.032 2.77 1.32 3.667l-.274-6.242-2.127.093zm-.491 6.662 1.471-.264c-.143-.978-.377-2.887-.485-3.654l-.986 3.918zM37.9 48.28c.295 1.047-1.518 1.463-1.653.373-.108-.755-.276-1.72-.56-2.505-.395 2.335-1.236 3.045-2.117 3.121-1.056.047-1.105-1.596-.466-1.81.676-.218.84.672.495.762-.345.078-.285.324-.015.238.528-.173 1.173-1.647.808-7.412-.045-1.02 1.434-1.086 1.491-.066.078 1.753.04 3.163-.073 4.277.837.61 1.702 1.869 2.09 3.023zm6.36-1.289c-.012 0-.025.002-.038-.01l.04.895c.023.535-.302 1.072-.886 1.098l-.958.042c-.485.021-.988-.368-1.04-1.275a1.077 1.077 0 0 1 .056-.401.637.637 0 0 1-.438-.342l-2.286.437c-.605.139-.874-.322-.742-1.001l.972-4.79c-.375.24-.808.31-1.128.124-.025-.011-.039-.036-.064-.047l.14 3.183c.021.473-.26.897-.72.917-.397.018-.763-.378-.784-.85l-.248-5.62-2.201.096.247 5.62c.021.474-.309.9-.707.917-.46.02-.776-.377-.797-.85l-.231-5.235c-.028-.634.251-1.083.711-1.103l3.693-.163c.46-.02.778.402.807 1.036l.044 1.008.05-.003c.448.005.415.655.13.68-.295.1.164.354.24-.198l.235-2.564c.069-1 1.907-.857 1.789.146l-.125.566 2.923-.13c.583-.037.955.469.985 1.153l.272 6.168h.012c.326.035.31.522.047.496zM53.635 37.981c-.128-.368.134-.63.501-.496.548.263 1.29.691 1.69 1.047.842.985-1.247 1.924-1.629.907-.196-.49-.423-1.128-.562-1.458zM56.38 47.99c-.194.12-.44.206-.613.214l-1.48.065c-.697.03-1.13-.474-1.158-1.108l-.211-4.788c-.052-1.181 1.838-1.264 1.89-.083l.23 5.21.522-.022c.087-.004.532-.074.215-.21-.495-.202-.344-1.031.352-1.062.858-.037 1.03 1.326.253 1.784zm-3.568-7.17c-.15 4.791-1.357 7.361-2.811 7.738-1.676.422-1.936-1.236-1.266-1.851.634-.614 1.541.467.843.735-.356.128-.267.448.073.246.743-.394 1.205-3.192 1.233-6.783l-2.076.092c-.448.02-.49-.652-.03-.672l2.114-.093a49.968 49.968 0 0 0-.05-1.978c-.047-1.082 1.88-1.168 1.94-.086.03.696.047 1.356.038 1.98L56.129 40c.46-.02.464.653.03.672l-3.346.147zm-4.7 1.067.264 6.007a.962.962 0 0 1-.903.986.963.963 0 0 1-.987-.903l-.264-6.007v-.012a1.44 1.44 0 0 1-.868-.161c-.763-.353-.674-1.453-.092-1.516.646-.054.82.774.268.985-.24.198.1.557.342-.177l1.05-3c.404-1.039 2.185-.482 1.818.531l-.825 1.905a2.735 2.735 0 0 1-.324.563.968.968 0 0 1 .52.799zM67.21 42.304l-.132-.455v-.012l-2.997.132.025.596 3.104-.26zm-.74-1.824-2.45.108.032.734 2.45-.108-.033-.734zm-2.51-1.26.031.721 2.45-.107-.032-.721-2.45.107zm2.797 8.362c-.194.12-.39.204-.613.215l-4.576.2c-.585.026-.951-.368-.98-1.002l-.109-2.475c-.054-1.231 1.837-1.315 1.891-.084l.125 2.836 3.42-.151v.012c.135-.043.232-.11.042-.188-.294-.162-.267-.973.43-.991.823.026.936 1.192.37 1.628zm-4.595-6.177-.033-.733-2.412.106.032.733 2.413-.106zm-2.505-1.995.03.721 2.414-.106-.032-.721-2.412.106zm.376 5.154-.095 1.524c-.019 1.56-.929 2.397-2.075 2.11-.634-.246-.665-1.229-.143-1.264.436-.007.574.56.28.685-.317.164.235.538.264-.236l-.013-2.828c.062-1.136 1.82-1.102 1.782.009zm7.378-1.646-3.586.32c.163.03.305.136.4.307l1.015 2.123c.203.365.086.258.273-.024l.64-1.287c.528-1.045 1.776-.988 2.177-.096l.8 2.606c.391 1.241-1.467 1.472-1.682.273l-.711-2.572c-.164-.33-.09-.32-.323.014l-.673 1.413c-.41.89-1.648 1.081-2.126.118l-.878-1.83c-.181-.428.174-.855.59-1.01l-5.436.476c-.457.07-.524-.587-.065-.633l4.394-.38-.03-.684-3.171.14c-.634.028-1.147-.286-1.178-.995l-.058-1.318c-.03-.66.49-1.056 1.086-1.082l3.172-.14-.02-.46-4.652.205c-.51.022-.538-.624-.028-.647l4.663-.205a.962.962 0 0 1 .897-.85c.46-.02.887.322.969.767l4.725-.208c.46-.02.489.626.029.647l-4.713.208.02.46 3.208-.142c.597-.026 1.148.323 1.177.983l.058 1.318c.02.435-.154.73-.433.916.371.22.77.489 1.055.751.576.91-1.228 1.537-1.526.727a2.337 2.337 0 0 0-.059-.209zM19.596 51.477c-3.991.158-4.755-3.356-1.597-2.682.696-3.317 3.639-.75 1.597 2.682M16.227 44.177c-4.18-2.277-2.815-6.338.005-3.72 2.738-2.969 4.18 1.455-.005 3.72M13.586 45.672c-2.573 1.354-4.175-.717-1.89-1.263-.58-2.398 2.157-1.633 1.89 1.263M71.033 49.478c3.837 1.107 5.419-2.122 2.191-2.223.117-3.387-3.354-1.598-2.191 2.223" fill="#7F0CC2"/>
        <path d="M72.88 41.329c3.748-2.932 1.735-6.714-.616-3.668-3.19-2.48-3.885 2.121.616 3.668M76.27 44.478c2.573 1.354 4.176-.716 1.89-1.263.581-2.397-2.157-1.632-1.89 1.263" fill="#7F0CC2"/>
    </g>
</svg>
