<svg width="80" height="80" viewBox="0 0 80 80" xmlns="http://www.w3.org/2000/svg">
    <g fill="none" fill-rule="evenodd">
        <path d="M0 0h80v80H0z"/>
        <g stroke="#646464" stroke-linecap="round" stroke-linejoin="round" stroke-width="3">
            <path d="M63.478 71.015H16.342c-1.846 0-3.341-1.714-3.341-3.826V32.84c0-2.113 1.495-3.826 3.341-3.826h47.136c1.846 0 3.343 1.713 3.343 3.826v34.348c0 2.112-1.497 3.826-3.343 3.826z"/>
            <path d="M47.516 49.605a7.606 7.606 0 1 1-15.211-.002 7.606 7.606 0 0 1 15.211.002zM53.867 29.016v-6.06C53.867 15.248 47.618 9 39.91 9h0c-7.708 0-13.957 6.247-13.957 13.955v6.06"/>
        </g>
    </g>
</svg>
