<svg width="42" height="42" viewBox="0 0 42 42" xmlns="http://www.w3.org/2000/svg" xmlns:xlink="http://www.w3.org/1999/xlink">
    <defs>
        <path id="d2d0z3rgba" d="M.198.555h9.137v11.443H.198z"/>
        <path id="oq61i03hhc" d="M.189.473h9.869v8.474H.188z"/>
    </defs>
    <g fill="none" fill-rule="evenodd">
        <circle fill="#F24C7C" cx="21" cy="21" r="21"/>
        <path d="M31.606 17.727c.576-2.352.095-3.963-1.731-5.666-1.795-1.673-2.976-1.594-5.222-.974.266-2.835-2.917-4.613-5.393-4.094-2.825.592-4.69 3.453-5.64 6.068l-1.685 7.735c-.901 1.344-1.1 2.556-.855 3.67-.785-.044-1.55.085-2.205.485-.03 0 .015-.045-.01-.036-1.262.505-1.59 1.61-1.41 2.849.285 1.975 1.518 3.91 3.106 5.027 2.493 1.757 7.058 4.093 10.22 2.644 1.081-.497 1.78-1.365 1.711-2.58.393-.08.804-.2 1.236-.365 2.047-.78 2.956-1.901 4.376-3.275.856-.828 1.149-.418 2.23-.557 1.021-.13 1.517-.494 2.338-1.226 2.615-2.332 4.226-9.71-1.066-9.705" fill="#FFF"/>
        <path d="M15.727 35.682a12.939 12.939 0 0 1-.774-.261 16.172 16.172 0 0 1-3.902-2.135c-1.99-1.426-3.466-3.308-3.948-5.031a3.322 3.322 0 0 1 .78-3.078c.603-.64 1.389-.924 2.157-.777a.24.24 0 1 1-.09.471c-.603-.114-1.229.117-1.716.635a2.836 2.836 0 0 0-.667 2.622c.453 1.62 1.862 3.404 3.768 4.77 1.922 1.433 5.112 3.001 7.785 2.715.562-.054 3.178-.788 3.263-2.729.005-.132.414-.168.411-.035-.047 1.895-1.876 3.073-3.626 3.242-1.017.109-2.195-.032-3.44-.409" fill="#010001"/>
        <path d="m28.849 28.536-.648-.219s-.02.471-1.191 1.769c-.238.235-.723.873-2.898 2.13a6.984 6.984 0 0 1-1.257.442c-.434.11-2.353.64-4.88-.462-1.783-.776-1.798-1.304-1.798-1.304-.114-.163-.12.1-.105.124.016.024-.213.47 1.811 1.4 2.358 1.084 3.19.799 3.657.797a6.88 6.88 0 0 0 1.407-.145 7.465 7.465 0 0 0 1.355-.424c1.906-.9 2.86-1.88 3.123-2.124 1.335-1.435 1.424-1.984 1.424-1.984" fill="#010001"/>
        <path d="M35.185 20.998s-.219 1.955-.213 2.04c.006.086-1.038 2.481-1.038 2.481l-1.262 1.913-1.302.902-2.229.432s-.961-.288-.988-.3a69.922 69.922 0 0 1-1.049-.924l-.4-.76-.22-.936.138-1.556-1.12.35-1.678-.113s-.835-.546-.884-.57c-.05-.023-.801-1.213-.801-1.213l-.226-.903.21-1.105.307-.735.737-.362 1.057-.76.605-.871.318-1.07-.33-1.068-.742-.773.029-.223.285-1.149.432-2.481 2.072-.412 2.121.547 1.42 1.404 1.028 1.897.123 2.026-.197 1.19.958-.043 1.163.264 1.018.95.664 1.266-.006.665z" fill="#FFF"/>
        <path d="m24.66 10.756.162.735s.559-.489 2.379-.38a4.366 4.366 0 0 1 1.576.528c.927.56 1.263 1.062 1.485 1.342.449.558.783 1.249.948 2.013.084.382.118.783.118 1.19 0 .407-.034.823-.108 1.235 0 0-.082.918-.799 2.41-.14.29-.59 1.02-.648 1.11-.24.355-.496.698-.772 1.021 0 0-.823.888-.86.923-.15.144-.735.83-1.84 1.367-.35.154-.92.392-2.237.212a2.44 2.44 0 0 1-.86-.45c-.03-.024-.597-.433-.97-1.396a3.126 3.126 0 0 1-.106-1.327c.05-.371.139-.655.202-.847.035-.095.145-.383.155-.42l-.007.012c.006-.011-.118-.068-.118-.068-.02.033-.145.325-.183.422a4.625 4.625 0 0 0-.226.877c-.058.386-.067.878.087 1.41.078.266.175.548.429.898.61.943 1.166 1.029 1.523 1.136 1.506.337 2.34-.088 2.939-.457a19.8 19.8 0 0 0 .959-.699c.727-.61 1.956-2.027 2.21-2.391.063-.092.696-1.142.696-1.142l.294-.604c.044-.103.416-1.157.447-1.264.03-.107.147-.65.147-.65.086-.436.13-.876.139-1.314a6.027 6.027 0 0 0-.105-1.296 5.37 5.37 0 0 0-1.01-2.253c-.24-.314-.505-.792-1.622-1.516a4.966 4.966 0 0 0-1.792-.64c-.564-.084-1.14-.101-1.547-.04-.48.022-1.085.313-1.085.313" fill="#010001"/>
        <g transform="translate(26.2 16.927)">
            <mask id="ed5pp3tfsb" fill="#fff">
                <use xlink:href="#d2d0z3rgba"/>
            </mask>
            <path d="m5.229.572.094.676s.59-.047.866-.017c.449-.046 1.06.236 1.473.583.086.064.409.376.481.469.675.914.623 1.977.618 2.277a5.803 5.803 0 0 1-.093.914c-.054.308-.135.62-.234.93-.098.312-.217.623-.35.933-.263.619-.581 1.234-.904 1.849-.02.038-.496.77-.552.831-.213.256-.45.491-.71.698a4.545 4.545 0 0 1-1.714.87 3.45 3.45 0 0 1-.912.11 3.038 3.038 0 0 1-.864-.139 3.015 3.015 0 0 1-1.337-.872 2.767 2.767 0 0 1-.62-1.207 3.61 3.61 0 0 1-.078-1.063 5.041 5.041 0 0 1 .15-.929c.038-.148.025-.231-.011-.243-.036-.01-.097.053-.139.204 0 0-.024.084-.062.245-.037.162-.088.4-.115.71-.028.308-.033.691.056 1.12.087.429.287.902.638 1.318.177.207.383.402.624.57a3.22 3.22 0 0 0 1.75.586 3.77 3.77 0 0 0 .995-.096 4.891 4.891 0 0 0 1.868-.893c.283-.215.544-.461.782-.732.926-1.237 1.297-2.113 1.585-2.748.144-.318.276-.64.388-.966.113-.326.207-.657.274-.99.067-.332.11-.665.124-.994.013-.329.227-1.546-.576-2.635-.086-.115-.6-1.06-2.452-1.365C5.942.53 5.229.572 5.229.572" fill="#010001" mask="url(#ed5pp3tfsb)"/>
        </g>
        <g transform="translate(14.8 6.127)">
            <mask id="i5k8l587ed" fill="#fff">
                <use xlink:href="#oq61i03hhc"/>
            </mask>
            <path d="m.189 4.008.695.22c.548-.95.717-1.22.709-1.21C3.527.687 5.04.923 5.286.908c2.014.12 3.093 1.008 3.438 1.375.17.185.323.385.448.598.125.213.23.437.31.666.08.23.14.463.186.695.045.233.075.464.096.69.053.52-.018 1.073-.04 1.272a16.9 16.9 0 0 1-.318 1.911 3.54 3.54 0 0 1-.157.51c-.116.328.014.393.079.25a6.57 6.57 0 0 0 .25-.714c.128-.46.262-1.123.381-1.926.03-.2.059-.41.084-.628.006-.055.015-.321.015-.35-.005-.113-.01-.229-.017-.346a7.39 7.39 0 0 0-.078-.721 5.087 5.087 0 0 0-.175-.745 3.858 3.858 0 0 0-.789-1.41 4.604 4.604 0 0 0-1.322-1.017C7.433.883 6.242.346 4.463.5 3.94.605 1.947 1.083.284 3.83l-.095.18" fill="#010001" mask="url(#i5k8l587ed)"/>
        </g>
        <path d="M24.075 15.097c-.818-.611-1.854-1.042-2.71-1.719-.976-.771-2.154-2.631-3.364-3.034-2.222-.74-5.484.25-7.04 1.923-2.422 2.6-4.61 13.123 2.38 15.28l2.395-9.87c1.52 1.144 5.071 3.008 7.026 2.183 2.115-.893 3.424-3.189 1.313-4.763" fill="#FFF"/>
        <path d="M11.234 28.094c.822 1.04 1.526 2.085 2.4 3.066.427.48 1.48 1.467.526 1.91a.948.948 0 0 1-.544.076c-1.092.192-2.918-1.588-3.458-2.143-.87-.895-2.531-3.274-1.868-4.628.723-1.475 2.5 1.157 2.944 1.719M33.145 19.05c-.242-.822-1.22-.673-1.599-.02a3.492 3.492 0 0 0-.355.935c-.404.95-.534 2.125-.036 2.42.748.444 1.46-.985 1.67-1.44.27-.59.512-1.242.32-1.896M27.52 12.082c-.336-.654-.877-.653-1.309-.418a.949.949 0 0 0-.111.067c-.401.267-.67.722-.513.974a1.71 1.71 0 0 0 .003.27c.052.54.187 1.042.196 1.592.007.451.066.902.57 1.078 1.249.438 1.525-2.857 1.163-3.563M18.226 12.16c-.462-.557-1.26-.57-2.029-.539-.708.03-3.876.401-3.323 1.772.59 1.461 2.551.674 3.57.825.625.092 1.209.36 1.758-.145.548-.504.467-1.378.024-1.912" fill="#F24C7C"/>
        <path fill="#FFF" d="m15.692 17.618.747.474 1.617.907 1.521 1.093.766.977.216.767.065 1.507-.431 1.094-5.945-2.217-.753-1.862z"/>
        <path d="M20.03 25.412c.05-.129.442-1.023.55-1.328a5.35 5.35 0 0 0 .267-1.029c.025-.174.073-1.237-.574-2.363-.211-.367-.512-.646-.796-.87-.575-.44-1.105-.676-1.37-.807-.258-.126-.32-.044-.067.092a5.67 5.67 0 0 1 1.206.902c.232.227.465.494.66.801.195.308.354.653.443 1.024.083.344.12.707.105 1.066a6.016 6.016 0 0 1-.133 1.03 26.761 26.761 0 0 1-.402 1.46c-.092.28.01.29.111.022" fill="#010001"/>
        <path d="M16.828 18.406a17.59 17.59 0 0 0 1.29.709c.514.25 1.11.512 1.798.724 1.511.389 2.12.292 2.332.258.213-.03.428-.098.632-.185a4.64 4.64 0 0 0 .599-.303 4.411 4.411 0 0 0 1.082-.895c.159-.183.303-.384.423-.606.12-.221.517-1.236.03-2.27-.138-.236-.419-.704-1.183-1.131-.447-.299-1.178-.56-2.65-1.77-.38-.374-.737-.8-1.114-1.215-.189-.209-1.13-1.102-1.25-1.19-.12-.088-.412-.32-.811-.424a5.033 5.033 0 0 0-.868-.19 6.832 6.832 0 0 0-1.884.034 8.677 8.677 0 0 0-1.808.477c-.58.224-1.834.693-2.981 2.135a8.451 8.451 0 0 0-.848 1.577 13.62 13.62 0 0 0-.56 1.637 15.557 15.557 0 0 0-.529 3.229c-.015.261-.08 1.96.168 2.968.169.919.452 1.755.828 2.457.373.703.83 1.272 1.294 1.695 1.271 1.117 2.524 1.372 2.539 1.363.014-.009-.07-.05-.259-.123-.047-.017-.739-.186-1.835-1.025a6.404 6.404 0 0 1-.338-.296 6.043 6.043 0 0 1-1.22-1.648 8.163 8.163 0 0 1-.757-2.317 12.075 12.075 0 0 1-.145-2.772c.027-.488.08-.985.16-1.489.4-2.34 1.24-4.066 1.52-4.54.141-.238.295-.467.468-.678.17-.21.37-.403.583-.583a6.767 6.767 0 0 1 1.432-.904 8.362 8.362 0 0 1 1.633-.576 7.403 7.403 0 0 1 1.73-.215c.54 0 1.083.065 1.591.231.235.079.46.211.674.371.215.159.418.342.615.534.393.385.76.809 1.141 1.224.19.207.386.414.596.61.934.795 1.64 1.112 2.106 1.381.234.134 1.1.713 1.277.89 1.015.902.405 2.388.283 2.588-.244.4-.837 1.168-2.096 1.644-.999.226-2.015.016-2.38-.077-.365-.094-.708-.21-1.03-.33a14.68 14.68 0 0 1-2.288-1.12c-.363-.221-.624-.392-.795-.501-.17-.11-.252-.158-.251-.14.004.032.336.338 1.056.777" fill="#010001"/>
    </g>
</svg>
